<svg width="160" height="160" viewBox="0 0 160 160" fill="none" xmlns="http://www.w3.org/2000/svg">
<g id="Type=Logo Default, Component=Logo">
<g id="Vector">
<path d="M123.893 114.231C123.08 114.633 122.263 115.03 121.42 115.391C112.16 119.363 102.362 120.27 93.1383 118.59C105.657 114.116 114.632 102.188 114.632 88.1347C114.632 70.258 100.137 55.7647 82.2617 55.7647C64.385 55.7647 49.8917 70.258 49.8917 88.1347C49.8917 88.5201 49.9173 88.8984 49.943 89.2777C49.9544 89.4463 49.9658 89.615 49.975 89.7847L49.9684 89.788C49.9751 89.928 49.9803 90.0675 49.9854 90.2069C49.9942 90.4461 50.0031 90.6852 50.02 90.9264C50.0242 90.9804 50.0305 91.0331 50.0362 91.0862C50.0395 91.1166 50.0425 91.1471 50.045 91.178C50.0584 91.3414 50.075 91.5063 50.0917 91.6697C52.595 120.85 78.195 130.441 107.5 128.333C114.635 127.82 130.625 122.981 136.667 120C123.893 136.666 103.185 146.666 85.8333 146.666C47.5117 146.666 13.3333 120.821 13.3333 82.4997C13.3333 44.178 43.5667 13.333 81.8883 13.333C110.217 13.333 132.557 26.1097 143.333 50.443C145.592 55.963 146.667 64.9447 146.667 71.2764C146.667 89.318 138.75 106.255 123.893 114.231Z" fill="white"/>
<path d="M82.4991 106.274C92.6246 106.274 100.833 98.0657 100.833 87.942C100.833 77.8164 92.6246 69.6097 82.4991 69.6097C72.3754 69.6097 64.1667 77.8184 64.1667 87.942C64.1667 98.0657 72.3754 106.274 82.4991 106.274Z" fill="white"/>
</g>
</g>
</svg>
